<?xml version="1.0" encoding="iso-8859-1"?>
<!-- Generator: Adobe Illustrator 19.0.0, SVG Export Plug-In . SVG Version: 6.00 Build 0)  -->
<svg version="1.1" id="Capa_1" xmlns="http://www.w3.org/2000/svg" xmlns:xlink="http://www.w3.org/1999/xlink" x="0px" y="0px"
	 viewBox="0 0 512 512" style="enable-background:new 0 0 512 512;" xml:space="preserve">
<path style="fill:#FED42D;" d="M364.887,128.467V15c0-8.284-6.716-15-15-15H15C6.716,0,0,6.716,0,15v482c0,8.284,6.716,15,15,15
	h334.887c8.284,0,15-6.716,15-15V383.572c0-8.284-6.716-15-15-15V143.467C358.171,143.467,364.887,136.751,364.887,128.467z"/>
<path style="fill:#FCBF29;" d="M364.887,125.712V15c0-8.284-6.716-15-15-15H182.443v512h167.443c8.284,0,15-6.716,15-15V386.289
	c0-8.284-6.716-15-15-15V140.712C358.171,140.712,364.887,133.996,364.887,125.712z"/>
<path style="fill:#FD3018;" d="M493.417,211.231l-82.184-82.183c-11.939-11.956-27.82-18.541-44.721-18.542
	c-0.002,0-0.003,0-0.005,0c-16.878,0-32.747,6.573-44.683,18.509c-11.936,11.938-18.511,27.808-18.511,44.687
	c-0.001,6.573,0.995,12.993,2.918,19.09l-34.168-0.002c-16.883,0.003-32.753,6.576-44.687,18.511
	c-11.938,11.936-18.512,27.809-18.512,44.69c-0.001,16.883,6.573,32.753,18.509,44.686c11.935,11.938,27.806,18.512,44.726,18.512
	l34.116,0.002c-1.925,6.099-2.924,12.526-2.924,19.106c0.005,34.845,28.356,63.195,63.194,63.198c0.002,0,0.026,0,0.03,0
	c16.863,0,32.726-6.574,44.667-18.513l82.217-82.215c8.842-8.806,14.83-19.892,17.315-32.055c0.856-4.185,1.288-8.473,1.283-12.726
	C512,239.061,505.393,223.158,493.417,211.231z M366.516,386.494L366.516,386.494L366.516,386.494L366.516,386.494z"/>
<path style="fill:#E61E14;" d="M512,256.014c0,16.928-6.607,32.83-18.583,44.756l-82.185,82.184
	c-11.939,11.955-27.82,18.54-44.72,18.541c-0.002,0-0.003,0-0.005,0c-16.878,0-32.747-6.573-44.682-18.51
	c-11.937-11.936-18.51-27.808-18.508-44.681c-0.003-6.574,0.993-12.997,2.916-19.094l-34.169,0.001
	c-16.884-0.003-32.754-6.577-44.687-18.511c-11.938-11.936-18.513-27.808-18.513-44.69H512C512,256.012,512,256.012,512,256.014z"/>
<g>
</g>
<g>
</g>
<g>
</g>
<g>
</g>
<g>
</g>
<g>
</g>
<g>
</g>
<g>
</g>
<g>
</g>
<g>
</g>
<g>
</g>
<g>
</g>
<g>
</g>
<g>
</g>
<g>
</g>
</svg>
